<svg xmlns="http://www.w3.org/2000/svg" width="180" height="180" viewBox="0 0 180 180" role="img" aria-label="ESL Hub app icon">
  <defs>
    <linearGradient id="bg" x1="8%" y1="6%" x2="92%" y2="94%">
      <stop offset="0%" stop-color="#7c3aed"/>
      <stop offset="100%" stop-color="#4338ca"/>
    </linearGradient>
  </defs>
  <rect x="8" y="8" width="164" height="164" rx="36" fill="url(#bg)"/>
  <path d="M48 53c0-7 6-13 13-13h58c7 0 13 6 13 13v45c0 7-6 13-13 13H89l-19 18c-3 2-6 1-6-3v-15h-3c-7 0-13-6-13-13V53z" fill="#fff"/>
  <rect x="84" y="61" width="12" height="30" rx="6" fill="#4f46e5"/>
  <path d="M73 80c0 10 8 18 17 18s17-8 17-18" fill="none" stroke="#4f46e5" stroke-width="5" stroke-linecap="round"/>
  <rect x="89" y="99" width="4" height="12" rx="2" fill="#4f46e5"/>
  <rect x="80" y="110" width="22" height="4" rx="2" fill="#4f46e5"/>
</svg>
