<svg xmlns="http://www.w3.org/2000/svg" width="512" height="512" viewBox="0 0 512 512" role="img" aria-labelledby="title desc">
  <title id="title">ESL Audio App icon</title>
  <desc id="desc">Rounded square icon with ESL lettering and audio wave.</desc>
  <defs>
    <linearGradient id="bg" x1="0%" y1="0%" x2="100%" y2="100%">
      <stop offset="0%" stop-color="#4f46e5" />
      <stop offset="100%" stop-color="#0ea5e9" />
    </linearGradient>
  </defs>
  <rect x="24" y="24" width="464" height="464" rx="104" fill="url(#bg)" />
  <path d="M142 180h42l20 48 20-48h42l-43 96 43 96h-42l-20-48-20 48h-42l43-96z" fill="#fff" opacity="0.95"/>
  <path d="M286 188h92v32h-58v27h54v32h-54v31h58v32h-92z" fill="#fff" opacity="0.95"/>
  <path d="M388 213c12 12 18 27 18 43s-6 31-18 43" fill="none" stroke="#fff" stroke-width="16" stroke-linecap="round" opacity="0.85"/>
  <path d="M420 183c20 20 30 45 30 73s-10 53-30 73" fill="none" stroke="#fff" stroke-width="16" stroke-linecap="round" opacity="0.55"/>
</svg>
